<svg width="202" height="39" viewBox="0 0 202 39" fill="none" xmlns="http://www.w3.org/2000/svg">
<path d="M180.355 16.52C180.355 14.6533 180.622 13.0133 181.155 11.6C181.689 10.16 182.435 8.96 183.395 8C184.355 7.01333 185.515 6.26667 186.875 5.76C188.235 5.25333 189.742 5 191.395 5C192.915 5 194.315 5.26667 195.595 5.8C196.875 6.33333 197.982 7.06667 198.915 8C199.875 8.93333 200.622 10.0533 201.155 11.36C201.689 12.6667 201.955 14.08 201.955 15.6C201.955 17.1467 201.689 18.5733 201.155 19.88C200.649 21.16 199.929 22.2667 198.995 23.2C198.089 24.1333 197.009 24.8667 195.755 25.4C194.529 25.9067 193.182 26.16 191.715 26.16C190.195 26.16 188.849 25.8667 187.675 25.28C186.502 24.6933 185.582 23.9733 184.915 23.12V33.64H180.355V16.52ZM191.075 22.12C191.982 22.12 192.809 21.96 193.555 21.64C194.329 21.2933 194.982 20.8267 195.515 20.24C196.075 19.6533 196.502 18.96 196.795 18.16C197.089 17.36 197.235 16.4933 197.235 15.56C197.235 14.6533 197.089 13.8133 196.795 13.04C196.502 12.24 196.075 11.56 195.515 11C194.982 10.4133 194.329 9.96 193.555 9.64C192.809 9.29333 191.982 9.12 191.075 9.12C190.169 9.12 189.329 9.28 188.555 9.6C187.809 9.92 187.155 10.36 186.595 10.92C186.062 11.48 185.635 12.16 185.315 12.96C185.022 13.7333 184.875 14.6 184.875 15.56C184.875 16.4933 185.022 17.36 185.315 18.16C185.635 18.96 186.062 19.6533 186.595 20.24C187.129 20.8267 187.769 21.2933 188.515 21.64C189.289 21.96 190.142 22.12 191.075 22.12Z" fill="#7693FF"/>
<path d="M155.356 16.52C155.356 14.6533 155.622 13.0133 156.156 11.6C156.689 10.16 157.436 8.96 158.396 8C159.356 7.01333 160.516 6.26667 161.876 5.76C163.236 5.25333 164.742 5 166.396 5C167.916 5 169.316 5.26667 170.596 5.8C171.876 6.33333 172.982 7.06667 173.916 8C174.876 8.93333 175.622 10.0533 176.156 11.36C176.689 12.6667 176.956 14.08 176.956 15.6C176.956 17.1467 176.689 18.5733 176.156 19.88C175.649 21.16 174.929 22.2667 173.996 23.2C173.089 24.1333 172.009 24.8667 170.756 25.4C169.529 25.9067 168.182 26.16 166.716 26.16C165.196 26.16 163.849 25.8667 162.676 25.28C161.502 24.6933 160.582 23.9733 159.916 23.12V33.64H155.356V16.52ZM166.076 22.12C166.982 22.12 167.809 21.96 168.556 21.64C169.329 21.2933 169.982 20.8267 170.516 20.24C171.076 19.6533 171.502 18.96 171.796 18.16C172.089 17.36 172.236 16.4933 172.236 15.56C172.236 14.6533 172.089 13.8133 171.796 13.04C171.502 12.24 171.076 11.56 170.516 11C169.982 10.4133 169.329 9.96 168.556 9.64C167.809 9.29333 166.982 9.12 166.076 9.12C165.169 9.12 164.329 9.28 163.556 9.6C162.809 9.92 162.156 10.36 161.596 10.92C161.062 11.48 160.636 12.16 160.316 12.96C160.022 13.7333 159.876 14.6 159.876 15.56C159.876 16.4933 160.022 17.36 160.316 18.16C160.636 18.96 161.062 19.6533 161.596 20.24C162.129 20.8267 162.769 21.2933 163.516 21.64C164.289 21.96 165.142 22.12 166.076 22.12Z" fill="#7693FF"/>
<path d="M151.142 25.56C150.876 25.6133 150.449 25.6667 149.862 25.72C149.302 25.8 148.636 25.8667 147.862 25.92C147.089 26 146.222 26.0667 145.262 26.12C144.302 26.1733 143.302 26.2 142.262 26.2C140.182 26.2 138.476 26.0133 137.142 25.64C135.836 25.2933 134.796 24.8267 134.022 24.24C133.276 23.6267 132.756 22.9333 132.462 22.16C132.196 21.36 132.062 20.5467 132.062 19.72C132.062 18.6267 132.222 17.6667 132.542 16.84C132.889 16.0133 133.436 15.32 134.182 14.76C134.956 14.2 135.956 13.7867 137.182 13.52C138.409 13.2267 139.902 13.08 141.662 13.08C142.676 13.08 143.636 13.12 144.542 13.2C145.449 13.2533 146.129 13.3067 146.582 13.36C146.582 12.4267 146.422 11.6533 146.102 11.04C145.809 10.4267 145.396 9.94667 144.862 9.6C144.329 9.25333 143.689 9.01333 142.942 8.88C142.196 8.74667 141.369 8.68 140.462 8.68C138.942 8.68 137.716 8.85333 136.782 9.2C135.876 9.54667 135.276 9.84 134.982 10.08C134.822 9.94667 134.596 9.69333 134.302 9.32C134.036 8.94667 133.902 8.49333 133.902 7.96C133.902 7.58667 133.996 7.22667 134.182 6.88C134.396 6.50667 134.756 6.18667 135.262 5.92C135.769 5.62667 136.449 5.4 137.302 5.24C138.156 5.08 139.236 5 140.542 5C142.116 5 143.542 5.16 144.822 5.48C146.129 5.77333 147.249 6.25333 148.182 6.92C149.116 7.58667 149.836 8.46667 150.342 9.56C150.876 10.6533 151.142 11.9733 151.142 13.52V25.56ZM146.622 16.68C146.356 16.6267 145.849 16.5467 145.102 16.44C144.382 16.3333 143.289 16.28 141.822 16.28C140.009 16.28 138.689 16.56 137.862 17.12C137.036 17.6533 136.622 18.5067 136.622 19.68C136.622 20.16 136.702 20.6 136.862 21C137.049 21.4 137.356 21.7467 137.782 22.04C138.209 22.3067 138.782 22.52 139.502 22.68C140.249 22.8133 141.169 22.88 142.262 22.88C143.489 22.88 144.462 22.84 145.182 22.76C145.902 22.6533 146.382 22.5733 146.622 22.52V16.68Z" fill="#7693FF"/>
<path d="M107.582 16.52C107.582 14.6533 107.849 13.0133 108.382 11.6C108.916 10.16 109.662 8.96 110.622 8C111.582 7.01333 112.742 6.26667 114.102 5.76C115.462 5.25333 116.969 5 118.622 5C120.142 5 121.542 5.26667 122.822 5.8C124.102 6.33333 125.209 7.06667 126.142 8C127.102 8.93333 127.849 10.0533 128.382 11.36C128.916 12.6667 129.182 14.08 129.182 15.6C129.182 17.1467 128.916 18.5733 128.382 19.88C127.876 21.16 127.156 22.2667 126.222 23.2C125.316 24.1333 124.236 24.8667 122.982 25.4C121.756 25.9067 120.409 26.16 118.942 26.16C117.422 26.16 116.076 25.8667 114.902 25.28C113.729 24.6933 112.809 23.9733 112.142 23.12V33.64H107.582V16.52ZM118.302 22.12C119.209 22.12 120.036 21.96 120.782 21.64C121.556 21.2933 122.209 20.8267 122.742 20.24C123.302 19.6533 123.729 18.96 124.022 18.16C124.316 17.36 124.462 16.4933 124.462 15.56C124.462 14.6533 124.316 13.8133 124.022 13.04C123.729 12.24 123.302 11.56 122.742 11C122.209 10.4133 121.556 9.96 120.782 9.64C120.036 9.29333 119.209 9.12 118.302 9.12C117.396 9.12 116.556 9.28 115.782 9.6C115.036 9.92 114.382 10.36 113.822 10.92C113.289 11.48 112.862 12.16 112.542 12.96C112.249 13.7333 112.102 14.6 112.102 15.56C112.102 16.4933 112.249 17.36 112.542 18.16C112.862 18.96 113.289 19.6533 113.822 20.24C114.356 20.8267 114.996 21.2933 115.742 21.64C116.516 21.96 117.369 22.12 118.302 22.12Z" fill="#F5F5F5"/>
<path d="M33 16.52C33 14.6533 33.2667 13.0133 33.8 11.6C34.3333 10.16 35.08 8.96 36.04 8C37 7.01333 38.16 6.26667 39.52 5.76C40.88 5.25333 42.3867 5 44.04 5C45.56 5 46.96 5.26667 48.24 5.8C49.52 6.33333 50.6267 7.06667 51.56 8C52.52 8.93333 53.2667 10.0533 53.8 11.36C54.3333 12.6667 54.6 14.08 54.6 15.6C54.6 17.1467 54.3333 18.5733 53.8 19.88C53.2933 21.16 52.5733 22.2667 51.64 23.2C50.7333 24.1333 49.6533 24.8667 48.4 25.4C47.1733 25.9067 45.8267 26.16 44.36 26.16C42.84 26.16 41.4933 25.8667 40.32 25.28C39.1467 24.6933 38.2267 23.9733 37.56 23.12V33.64H33V16.52ZM43.72 22.12C44.6267 22.12 45.4533 21.96 46.2 21.64C46.9733 21.2933 47.6267 20.8267 48.16 20.24C48.72 19.6533 49.1467 18.96 49.44 18.16C49.7333 17.36 49.88 16.4933 49.88 15.56C49.88 14.6533 49.7333 13.8133 49.44 13.04C49.1467 12.24 48.72 11.56 48.16 11C47.6267 10.4133 46.9733 9.96 46.2 9.64C45.4533 9.29333 44.6267 9.12 43.72 9.12C42.8133 9.12 41.9733 9.28 41.2 9.6C40.4533 9.92 39.8 10.36 39.24 10.92C38.7067 11.48 38.28 12.16 37.96 12.96C37.6667 13.7333 37.52 14.6 37.52 15.56C37.52 16.4933 37.6667 17.36 37.96 18.16C38.28 18.96 38.7067 19.6533 39.24 20.24C39.7733 20.8267 40.4133 21.2933 41.16 21.64C41.9333 21.96 42.7867 22.12 43.72 22.12Z" fill="#F5F5F5"/>
<path d="M83.8435 7.68006C83.8435 6.93339 84.0568 6.40006 84.4835 6.08006C84.9102 5.73339 85.5102 5.56006 86.2835 5.56006C86.7635 5.56006 87.2035 5.62673 87.6035 5.76006C88.0035 5.86673 88.2702 5.94673 88.4035 6.00006V16.5201C88.4035 18.3334 88.8302 19.7201 89.6835 20.6801C90.5368 21.6134 91.8435 22.0801 93.6035 22.0801C95.3635 22.0801 96.6702 21.6134 97.5235 20.6801C98.3768 19.7201 98.8035 18.3334 98.8035 16.5201V7.68006C98.8035 6.93339 99.0168 6.40006 99.4435 6.08006C99.8702 5.73339 100.457 5.56006 101.204 5.56006C101.71 5.56006 102.164 5.62673 102.564 5.76006C102.964 5.86673 103.23 5.94673 103.364 6.00006V17.5201C103.364 18.8801 103.124 20.1067 102.644 21.2001C102.19 22.2667 101.524 23.1734 100.644 23.9201C99.7902 24.6667 98.7635 25.2401 97.5635 25.6401C96.3635 26.0134 95.0435 26.2001 93.6035 26.2001C92.1635 26.2001 90.8435 26.0134 89.6435 25.6401C88.4435 25.2401 87.4168 24.6667 86.5635 23.9201C85.7102 23.1734 85.0435 22.2667 84.5635 21.2001C84.0835 20.1067 83.8435 18.8801 83.8435 17.5201V7.68006Z" fill="#F5F5F5"/>
<path d="M69.0044 5C70.5511 5 71.9911 5.26667 73.3244 5.8C74.6844 6.33333 75.8577 7.08 76.8444 8.04C77.8311 8.97333 78.6044 10.0933 79.1644 11.4C79.7244 12.68 80.0044 14.08 80.0044 15.6C80.0044 17.0933 79.7244 18.4933 79.1644 19.8C78.6044 21.08 77.8311 22.2 76.8444 23.16C75.8577 24.0933 74.6844 24.84 73.3244 25.4C71.9911 25.9333 70.5511 26.2 69.0044 26.2C67.4577 26.2 66.0044 25.9333 64.6444 25.4C63.3111 24.84 62.1511 24.0933 61.1644 23.16C60.1777 22.2 59.4044 21.08 58.8444 19.8C58.2844 18.4933 58.0044 17.0933 58.0044 15.6C58.0044 14.08 58.2844 12.68 58.8444 11.4C59.4044 10.0933 60.1777 8.97333 61.1644 8.04C62.1511 7.08 63.3111 6.33333 64.6444 5.8C66.0044 5.26667 67.4577 5 69.0044 5ZM69.0044 22.16C69.9111 22.16 70.7511 22 71.5244 21.68C72.2977 21.3333 72.9511 20.8667 73.4844 20.28C74.0444 19.6667 74.4711 18.9733 74.7644 18.2C75.0844 17.4 75.2444 16.5333 75.2444 15.6C75.2444 14.6667 75.0844 13.8 74.7644 13C74.4711 12.1733 74.0444 11.4667 73.4844 10.88C72.9511 10.2933 72.2977 9.84 71.5244 9.52C70.7511 9.17333 69.9111 9 69.0044 9C68.0711 9 67.2177 9.17333 66.4444 9.52C65.6977 9.84 65.0444 10.2933 64.4844 10.88C63.9511 11.4667 63.5244 12.1733 63.2044 13C62.9111 13.8 62.7644 14.6667 62.7644 15.6C62.7644 16.5333 62.9111 17.4 63.2044 18.2C63.5244 18.9733 63.9511 19.6667 64.4844 20.28C65.0444 20.8667 65.6977 21.3333 66.4444 21.68C67.2177 22 68.0711 22.16 69.0044 22.16Z" fill="#F5F5F5"/>
<path d="M15.6748 25.7246C15.4993 25.6561 3.96615 19.5823 3.79074 19.491C3.04525 19.1713 2.40939 18.6005 1.97086 17.8469C0.918403 15.9517 1.53234 13.5314 3.35221 12.4353C4.60201 11.6818 6.07107 11.7275 7.23316 12.4582C7.38664 12.5267 18.4375 18.3265 18.6129 18.4406C18.7883 18.5091 18.9418 18.6005 19.1172 18.6918C19.8627 19.0115 20.4985 19.5823 20.9371 20.3358C21.9895 22.231 21.3975 24.6514 19.5776 25.7474C18.3278 26.5238 16.8368 26.4553 15.6748 25.7246Z" fill="#7693FF" fill-opacity="0.4"/>
<path d="M13.6356 12.0376C13.6677 12.5395 13.5154 13.0507 13.1673 13.4541C12.4409 14.2959 11.1411 14.3524 10.2677 13.5987C9.72518 13.1306 9.46651 12.4637 9.52199 11.8232C9.51222 11.723 9.56575 3.63039 9.57274 3.52933C9.54067 3.02741 9.69298 2.51629 10.041 2.1129C10.7675 1.27104 12.0673 1.21461 12.9407 1.96829C13.4832 2.43636 13.7419 3.10322 13.6864 3.74378C13.6978 3.8607 13.6426 11.9366 13.6356 12.0376Z" fill="#D6FF62"/>
<path d="M13.6356 36.0376C13.6677 36.5395 13.5154 37.0507 13.1673 37.4541C12.4409 38.2959 11.1411 38.3524 10.2677 37.5987C9.72518 37.1306 9.46651 36.4637 9.52199 35.8232C9.51222 35.723 9.56575 27.6304 9.57274 27.5293C9.54067 27.0274 9.69298 26.5163 10.041 26.1129C10.7675 25.271 12.0673 25.2146 12.9407 25.9683C13.4832 26.4364 13.7419 27.1032 13.6864 27.7438C13.6978 27.8607 13.6426 35.9366 13.6356 36.0376Z" fill="#D6FF62"/>
<path d="M6.50094 34.7664C5.71479 35.3056 4.73479 35.5535 3.74025 35.3781C1.6647 35.0122 0.311698 32.9505 0.691415 30.797C0.927239 29.4596 1.76207 28.3914 2.8589 27.8602C3.0126 27.7471 16.2413 19.9826 16.4127 19.8959C17.1988 19.3567 18.1788 19.1088 19.1734 19.2841C21.2489 19.6501 22.6019 21.7118 22.2222 23.8653C21.9864 25.2027 21.1515 26.2709 20.0547 26.802C19.8754 26.934 6.67226 34.6797 6.50094 34.7664Z" fill="#7693FF"/>
<path d="M6.50117 18.2944C5.71488 18.8344 4.73479 19.0828 3.74025 18.9074C1.68632 18.5453 0.308084 16.5003 0.692275 14.3214C0.928392 12.9823 1.76349 11.9127 2.86046 11.3806C3.0142 11.2673 16.2411 3.51331 16.4124 3.42652C17.1987 2.8865 18.1788 2.63808 19.1734 2.81344C21.2489 3.17942 22.6015 5.24328 22.2213 7.39944C21.9852 8.73853 21.1501 9.80819 20.0532 10.3402C19.8778 10.4497 6.66852 18.2303 6.50117 18.2944Z" fill="#7693FF"/>
</svg>
