<svg width="24" height="39" viewBox="0 0 24 39" fill="none" xmlns="http://www.w3.org/2000/svg">
<path d="M16.218 25.7246C16.0426 25.6561 4.50936 19.5823 4.33395 19.491C3.58846 19.1713 2.9526 18.6005 2.51408 17.8469C1.46162 15.9517 2.07555 13.5314 3.89543 12.4353C5.14522 11.6818 6.61428 11.7275 7.77637 12.4582C7.92985 12.5267 18.9807 18.3265 19.1561 18.4406C19.3315 18.5091 19.485 18.6005 19.6604 18.6918C20.4059 19.0115 21.0417 19.5823 21.4803 20.3358C22.5327 22.231 21.9407 24.6514 20.1208 25.7474C18.871 26.5238 17.3801 26.4553 16.218 25.7246Z" fill="#7693FF" fill-opacity="0.4"/>
<path d="M14.1789 12.0375C14.2109 12.5394 14.0586 13.0505 13.7105 13.4539C12.9841 14.2958 11.6843 14.3522 10.8109 13.5986C10.2684 13.1305 10.0097 12.4636 10.0652 11.8231C10.0554 11.7228 10.109 3.63026 10.116 3.52921C10.0839 3.02729 10.2362 2.51617 10.5843 2.11278C11.3107 1.27092 12.6105 1.21449 13.4839 1.96817C14.0264 2.43624 14.2851 3.10309 14.2296 3.74365C14.241 3.86057 14.1858 11.9365 14.1789 12.0375Z" fill="#D6FF62"/>
<path d="M14.1789 36.0375C14.2109 36.5394 14.0586 37.0505 13.7105 37.4539C12.9841 38.2958 11.6843 38.3522 10.8109 37.5986C10.2684 37.1305 10.0097 36.4636 10.0652 35.8231C10.0554 35.7228 10.109 27.6303 10.116 27.5292C10.0839 27.0273 10.2362 26.5162 10.5843 26.1128C11.3107 25.2709 12.6105 25.2145 13.4839 25.9682C14.0264 26.4362 14.2851 27.1031 14.2296 27.7437C14.241 27.8606 14.1858 35.9365 14.1789 36.0375Z" fill="#D6FF62"/>
<path d="M7.04403 34.7663C6.25788 35.3055 5.27788 35.5534 4.28334 35.378C2.20779 35.012 0.854789 32.9504 1.23451 30.7969C1.47033 29.4595 2.30516 28.3913 3.40199 27.8601C3.55569 27.747 16.7844 19.9824 16.9558 19.8958C17.7419 19.3566 18.7219 19.1087 19.7165 19.284C21.792 19.65 23.145 21.7117 22.7653 23.8651C22.5295 25.2026 21.6946 26.2708 20.5978 26.8019C20.4185 26.9339 7.21536 34.6796 7.04403 34.7663Z" fill="#86A0FE"/>
<path d="M7.04435 18.2944C6.25806 18.8344 5.27797 19.0828 4.28344 18.9074C2.2295 18.5453 0.851266 16.5003 1.23546 14.3214C1.47157 12.9823 2.30667 11.9127 3.40365 11.3806C3.55738 11.2673 16.7843 3.51331 16.9556 3.42652C17.7419 2.8865 18.722 2.63808 19.7165 2.81344C21.7921 3.17942 23.1447 5.24328 22.7645 7.39944C22.5284 8.73853 21.6933 9.80819 20.5963 10.3402C20.421 10.4497 7.2117 18.2303 7.04435 18.2944Z" fill="#86A0FE"/>
</svg>
