<svg width="26" height="24" viewBox="0 0 26 24" fill="none" xmlns="http://www.w3.org/2000/svg">
<path d="M15.875 13.4375C16.2917 13.8125 16.7708 14 17.3125 14C17.8542 14 18.3125 13.8125 18.6875 13.4375C19.1042 13.0625 19.3125 12.5833 19.3125 12C19.3125 11.4167 19.1042 10.9375 18.6875 10.5625C18.3125 10.1875 17.8542 10 17.3125 10C16.7708 10 16.2917 10.1875 15.875 10.5625C15.5 10.9375 15.3125 11.4167 15.3125 12C15.3125 12.5833 15.5 13.0625 15.875 13.4375ZM12 17.3125V6.6875H25.3125V17.3125H12ZM24 20V21.3125C24 22.0208 23.7292 22.6458 23.1875 23.1875C22.6458 23.7292 22.0208 24 21.3125 24H2.6875C1.9375 24 1.29167 23.75 0.75 23.25C0.25 22.7083 0 22.0625 0 21.3125V2.6875C0 1.9375 0.25 1.3125 0.75 0.8125C1.29167 0.270833 1.9375 0 2.6875 0H21.3125C22.0208 0 22.6458 0.270833 23.1875 0.8125C23.7292 1.35417 24 1.97917 24 2.6875V4H12C11.25 4 10.6042 4.27083 10.0625 4.8125C9.5625 5.3125 9.3125 5.9375 9.3125 6.6875V17.3125C9.3125 18.0625 9.5625 18.7083 10.0625 19.25C10.6042 19.75 11.25 20 12 20H24Z" fill="#F5F5F5"/>
</svg>
