<svg width="28" height="28" viewBox="0 0 28 28" fill="none" xmlns="http://www.w3.org/2000/svg">
<path d="M14 0.6875C15.8333 0.6875 17.5417 1.04167 19.125 1.75C20.75 2.41667 22.1667 3.375 23.375 4.625C24.625 5.83333 25.5833 7.25 26.25 8.875C26.9583 10.4583 27.3125 12.1667 27.3125 14C27.3125 15.8333 26.9583 17.5625 26.25 19.1875C25.5833 20.7708 24.625 22.1875 23.375 23.4375C22.1667 24.6458 20.75 25.6042 19.125 26.3125C17.5417 26.9792 15.8333 27.3125 14 27.3125C12.1667 27.3125 10.4375 26.9792 8.8125 26.3125C7.22917 25.6042 5.8125 24.6458 4.5625 23.4375C3.35417 22.1875 2.39583 20.7708 1.6875 19.1875C1.02083 17.5625 0.6875 15.8333 0.6875 14C0.6875 12.1667 1.02083 10.4583 1.6875 8.875C2.39583 7.25 3.35417 5.83333 4.5625 4.625C5.8125 3.375 7.22917 2.41667 8.8125 1.75C10.4375 1.04167 12.1667 0.6875 14 0.6875ZM15.1875 21.6875C15.3542 21.6458 15.6458 21.5625 16.0625 21.4375C16.5208 21.3125 16.9792 21.1042 17.4375 20.8125C17.9375 20.5208 18.3542 20.1042 18.6875 19.5625C19.0208 18.9792 19.1875 18.25 19.1875 17.375C19.1875 16.4583 18.9167 15.6042 18.375 14.8125C17.8333 14.0208 16.7708 13.3542 15.1875 12.8125C14.0208 12.3958 13.1458 12.0208 12.5625 11.6875C11.9792 11.3542 11.6875 10.875 11.6875 10.25C11.6875 9.79167 11.8125 9.4375 12.0625 9.1875C12.3542 8.89583 12.6875 8.6875 13.0625 8.5625C13.4375 8.4375 13.7708 8.375 14.0625 8.375C14.6458 8.375 15.1042 8.5 15.4375 8.75C15.8125 9 16.0833 9.27083 16.25 9.5625C16.4583 9.8125 16.5833 10.0208 16.625 10.1875L18.75 9.3125C18.6667 9.10417 18.5 8.79167 18.25 8.375C18 7.95833 17.625 7.5625 17.125 7.1875C16.625 6.77083 15.9792 6.47917 15.1875 6.3125V4.6875H12.8125V6.375C11.9792 6.54167 11.3125 6.83333 10.8125 7.25C10.3542 7.66667 10.0208 8.10417 9.8125 8.5625C9.60417 9.02083 9.47917 9.41667 9.4375 9.75C9.39583 10.0833 9.375 10.2708 9.375 10.3125C9.375 11.0625 9.52083 11.6875 9.8125 12.1875C10.1458 12.6875 10.5417 13.1042 11 13.4375C11.5 13.7708 12 14.0417 12.5 14.25C13 14.4167 13.4375 14.5625 13.8125 14.6875C14.8542 15.0625 15.625 15.4583 16.125 15.875C16.625 16.25 16.875 16.7708 16.875 17.4375C16.875 18.1875 16.5833 18.7292 16 19.0625C15.4167 19.3958 14.8125 19.5625 14.1875 19.5625C13.6042 19.5625 13.1042 19.4375 12.6875 19.1875C12.2708 18.9375 11.9375 18.6458 11.6875 18.3125C11.4792 17.9375 11.3125 17.6042 11.1875 17.3125C11.1042 17.0208 11.0417 16.8333 11 16.75L8.8125 17.6875C9.10417 18.6458 9.5 19.3958 10 19.9375C10.5 20.4792 11.0208 20.875 11.5625 21.125C12.1042 21.375 12.5208 21.5417 12.8125 21.625V23.3125H15.1875V21.6875Z" fill="#F5F5F5"/>
</svg>
