<svg width="30" height="22" viewBox="0 0 30 22" fill="none" xmlns="http://www.w3.org/2000/svg">
<path d="M24 13.375C24 14.0833 23.7292 14.7083 23.1875 15.25C22.6875 15.75 22.0833 16 21.375 16H2.6875C1.9375 16 1.29167 15.75 0.75 15.25C0.25 14.7083 0 14.0833 0 13.375V2.6875C0 1.9375 0.25 1.3125 0.75 0.8125C1.29167 0.270833 1.9375 0 2.6875 0H21.375C22.0833 0 22.6875 0.270833 23.1875 0.8125C23.7292 1.3125 24 1.9375 24 2.6875V13.375ZM12 12C12.75 12 13.4167 11.8333 14 11.5C14.625 11.125 15.1042 10.6458 15.4375 10.0625C15.8125 9.4375 16 8.75 16 8C16 7.29167 15.8125 6.64583 15.4375 6.0625C15.1042 5.4375 14.625 4.9375 14 4.5625C13.4167 4.1875 12.75 4 12 4C11.2917 4 10.625 4.1875 10 4.5625C9.41667 4.9375 8.9375 5.4375 8.5625 6.0625C8.1875 6.64583 8 7.29167 8 8C8 8.75 8.1875 9.4375 8.5625 10.0625C8.9375 10.6458 9.41667 11.125 10 11.5C10.625 11.8333 11.2917 12 12 12ZM29.375 4H26.6875V18.6875H4V21.375H26.6875C27.4375 21.375 28.0625 21.125 28.5625 20.625C29.1042 20.0833 29.375 19.4375 29.375 18.6875V4Z" fill="#F5F5F5"/>
</svg>
